<?xml version="1.0" standalone="no"?><svg xmlns:xlink="http://www.w3.org/1999/xlink" xmlns="http://www.w3.org/2000/svg" viewBox="0 0 1000 562.5036895856701" preserveAspectRatio="xMaxYMax slice"><g transform="scale(0.8433338674447828)"><rect x="0" y="0" width="1185.7777777777778" height="667" fill="#ffffff"/><rect x="741.1111111111111" y="74.11111111111111" width="74.11111111111111" height="74.11111111111111" fill="#ffffff"/><rect x="741.11" y="74.11" width="37.06" height="37.06" fill="#fff1d4"/><rect x="148.22222222222223" y="148.22222222222223" width="74.11111111111111" height="74.11111111111111" fill="#ffffff"/><rect x="148.22" y="148.22" width="37.06" height="37.06" fill="#e7ebfc"/><rect x="370.55555555555554" y="148.22222222222223" width="74.11111111111111" height="74.11111111111111" fill="#ffffff"/><rect x="444.6666666666667" y="148.22222222222223" width="74.11111111111111" height="74.11111111111111" fill="#ffffff"/><rect x="444.67" y="148.22" width="37.06" height="37.06" fill="#ffbc37"/><rect x="444.67" y="185.28" width="37.06" height="37.06" fill="#ffc95e"/><rect x="0" y="222.33333333333334" width="74.11111111111111" height="74.11111111111111" fill="#ffffff"/><rect x="0" y="222.33" width="37.06" height="37.06" fill="#d4dbf9"/><rect x="37.06" y="259.39" width="37.06" height="37.06" fill="#ffde9d"/><rect x="148.22222222222223" y="222.33333333333334" width="74.11111111111111" height="74.11111111111111" fill="#ffffff"/><rect x="148.22" y="222.33" width="37.06" height="37.06" fill="#fffefd"/><rect x="185.28" y="222.33" width="37.06" height="37.06" fill="#edf0fd"/><rect x="185.28" y="259.39" width="37.06" height="37.06" fill="#2449e3"/><rect x="1111.6666666666667" y="222.33333333333334" width="74.11111111111111" height="74.11111111111111" fill="#ffffff"/><rect x="1148.72" y="222.33" width="37.06" height="37.06" fill="#607bea"/><rect x="74.11111111111111" y="296.44444444444446" width="74.11111111111111" height="74.11111111111111" fill="#ffffff"/><rect x="74.11" y="333.5" width="37.06" height="37.06" fill="#2247e2"/><rect x="111.17" y="333.5" width="37.06" height="37.06" fill="#274ce3"/><rect x="148.22222222222223" y="296.44444444444446" width="74.11111111111111" height="74.11111111111111" fill="#ffffff"/><rect x="185.28" y="296.44" width="37.06" height="37.06" fill="#ffebc2"/><rect x="592.8888888888889" y="296.44444444444446" width="74.11111111111111" height="74.11111111111111" fill="#ffffff"/><rect x="667" y="296.44444444444446" width="74.11111111111111" height="74.11111111111111" fill="#ffffff"/><rect x="667" y="296.44" width="37.06" height="37.06" fill="#d3daf9"/><rect x="704.06" y="333.5" width="37.06" height="37.06" fill="#ffd683"/><rect x="815.2222222222223" y="296.44444444444446" width="74.11111111111111" height="74.11111111111111" fill="#ffffff"/><rect x="852.28" y="333.5" width="37.06" height="37.06" fill="#cdd6f9"/><rect x="1037.5555555555557" y="296.44444444444446" width="74.11111111111111" height="74.11111111111111" fill="#ffffff"/><rect x="1037.56" y="296.44" width="37.06" height="37.06" fill="#ffca61"/><rect x="1074.61" y="296.44" width="37.06" height="37.06" fill="#ffdc97"/><rect x="1037.56" y="333.5" width="37.06" height="37.06" fill="#7088ec"/><rect x="74.11111111111111" y="370.55555555555554" width="74.11111111111111" height="74.11111111111111" fill="#ffffff"/><rect x="74.11" y="370.56" width="37.06" height="37.06" fill="#fff6e3"/><rect x="74.11" y="407.61" width="37.06" height="37.06" fill="#ffe5b2"/><rect x="148.22222222222223" y="370.55555555555554" width="74.11111111111111" height="74.11111111111111" fill="#ffffff"/><rect x="148.22" y="370.56" width="37.06" height="37.06" fill="#dee3fb"/><rect x="185.28" y="370.56" width="37.06" height="37.06" fill="#5471e9"/><rect x="148.22" y="407.61" width="37.06" height="37.06" fill="#fffcf7"/><rect x="185.28" y="407.61" width="37.06" height="37.06" fill="#ffde9c"/><rect x="222.33333333333334" y="370.55555555555554" width="74.11111111111111" height="74.11111111111111" fill="#ffffff"/><rect x="222.33" y="370.56" width="37.06" height="37.06" fill="#fffbf4"/><rect x="296.44444444444446" y="370.55555555555554" width="74.11111111111111" height="74.11111111111111" fill="#ffffff"/><rect x="296.44" y="370.56" width="37.06" height="37.06" fill="#2247e2"/><rect x="296.44" y="407.61" width="37.06" height="37.06" fill="#8ea1f0"/><rect x="370.55555555555554" y="370.55555555555554" width="74.11111111111111" height="74.11111111111111" fill="#ffffff"/><rect x="407.61" y="370.56" width="37.06" height="37.06" fill="#a7b6f4"/><rect x="407.61" y="407.61" width="37.06" height="37.06" fill="#ffeecb"/><rect x="444.6666666666667" y="370.55555555555554" width="74.11111111111111" height="74.11111111111111" fill="#ffffff"/><rect x="444.67" y="370.56" width="37.06" height="37.06" fill="#8499ef"/><rect x="444.67" y="407.61" width="37.06" height="37.06" fill="#fffbf3"/><rect x="481.72" y="407.61" width="37.06" height="37.06" fill="#ffd889"/><rect x="518.7777777777778" y="370.55555555555554" width="74.11111111111111" height="74.11111111111111" fill="#ffffff"/><rect x="518.78" y="370.56" width="37.06" height="37.06" fill="#ffe7b7"/><rect x="518.78" y="407.61" width="37.06" height="37.06" fill="#ffe3ab"/><rect x="555.83" y="407.61" width="37.06" height="37.06" fill="#516fe8"/><rect x="667" y="370.55555555555554" width="74.11111111111111" height="74.11111111111111" fill="#ffffff"/><rect x="704.06" y="370.56" width="37.06" height="37.06" fill="#c6d0f8"/><rect x="704.06" y="407.61" width="37.06" height="37.06" fill="#5a76ea"/><rect x="741.1111111111111" y="370.55555555555554" width="74.11111111111111" height="74.11111111111111" fill="#ffffff"/><rect x="741.11" y="370.56" width="37.06" height="37.06" fill="#385ae5"/><rect x="741.11" y="407.61" width="37.06" height="37.06" fill="#ffc95d"/><rect x="815.2222222222223" y="370.55555555555554" width="74.11111111111111" height="74.11111111111111" fill="#ffffff"/><rect x="815.22" y="370.56" width="37.06" height="37.06" fill="#ffe5b2"/><rect x="815.22" y="407.61" width="37.06" height="37.06" fill="#7d93ee"/><rect x="852.28" y="407.61" width="37.06" height="37.06" fill="#899df0"/><rect x="889.3333333333334" y="370.55555555555554" width="74.11111111111111" height="74.11111111111111" fill="#ffffff"/><rect x="889.33" y="407.61" width="37.06" height="37.06" fill="#fff0d2"/><rect x="963.4444444444445" y="370.55555555555554" width="74.11111111111111" height="74.11111111111111" fill="#ffffff"/><rect x="963.44" y="370.56" width="37.06" height="37.06" fill="#c2ccf7"/><rect x="963.44" y="407.61" width="37.06" height="37.06" fill="#fffaf0"/><rect x="1111.6666666666667" y="370.55555555555554" width="74.11111111111111" height="74.11111111111111" fill="#ffffff"/><rect x="1111.67" y="370.56" width="37.06" height="37.06" fill="#7e94ee"/><rect x="1111.67" y="407.61" width="37.06" height="37.06" fill="#fff4de"/><rect x="1148.72" y="407.61" width="37.06" height="37.06" fill="#e5e9fc"/><rect x="0" y="444.6666666666667" width="74.11111111111111" height="74.11111111111111" fill="#ffffff"/><rect x="0" y="444.67" width="37.06" height="37.06" fill="#ffd787"/><rect x="37.06" y="444.67" width="37.06" height="37.06" fill="#6c85ec"/><rect x="0" y="481.72" width="37.06" height="37.06" fill="#738aed"/><rect x="37.06" y="481.72" width="37.06" height="37.06" fill="#4161e6"/><rect x="74.11111111111111" y="444.6666666666667" width="74.11111111111111" height="74.11111111111111" fill="#ffffff"/><rect x="111.17" y="444.67" width="37.06" height="37.06" fill="#fff9ed"/><rect x="111.17" y="481.72" width="37.06" height="37.06" fill="#ffda90"/><rect x="148.22222222222223" y="444.6666666666667" width="74.11111111111111" height="74.11111111111111" fill="#ffffff"/><rect x="148.22" y="444.67" width="37.06" height="37.06" fill="#cfd7f9"/><rect x="185.28" y="444.67" width="37.06" height="37.06" fill="#a6b5f3"/><rect x="222.33333333333334" y="444.6666666666667" width="74.11111111111111" height="74.11111111111111" fill="#ffffff"/><rect x="222.33" y="444.67" width="37.06" height="37.06" fill="#7b91ee"/><rect x="259.39" y="444.67" width="37.06" height="37.06" fill="#fffdf9"/><rect x="222.33" y="481.72" width="37.06" height="37.06" fill="#fff8ea"/><rect x="296.44444444444446" y="444.6666666666667" width="74.11111111111111" height="74.11111111111111" fill="#ffffff"/><rect x="296.44" y="444.67" width="37.06" height="37.06" fill="#5471e9"/><rect x="333.5" y="444.67" width="37.06" height="37.06" fill="#ffefd0"/><rect x="333.5" y="481.72" width="37.06" height="37.06" fill="#728aed"/><rect x="444.6666666666667" y="444.6666666666667" width="74.11111111111111" height="74.11111111111111" fill="#ffffff"/><rect x="444.67" y="444.67" width="37.06" height="37.06" fill="#fffdfa"/><rect x="481.72" y="444.67" width="37.06" height="37.06" fill="#ffc34c"/><rect x="481.72" y="481.72" width="37.06" height="37.06" fill="#f5f7fe"/><rect x="518.7777777777778" y="444.6666666666667" width="74.11111111111111" height="74.11111111111111" fill="#ffffff"/><rect x="518.78" y="444.67" width="37.06" height="37.06" fill="#ffbd39"/><rect x="555.83" y="444.67" width="37.06" height="37.06" fill="#94a6f1"/><rect x="518.78" y="481.72" width="37.06" height="37.06" fill="#f9fafe"/><rect x="555.83" y="481.72" width="37.06" height="37.06" fill="#284ce3"/><rect x="592.8888888888889" y="444.6666666666667" width="74.11111111111111" height="74.11111111111111" fill="#ffffff"/><rect x="592.89" y="444.67" width="37.06" height="37.06" fill="#284ce3"/><rect x="629.94" y="444.67" width="37.06" height="37.06" fill="#ffbc35"/><rect x="629.94" y="481.72" width="37.06" height="37.06" fill="#8da0f0"/><rect x="741.1111111111111" y="444.6666666666667" width="74.11111111111111" height="74.11111111111111" fill="#ffffff"/><rect x="741.11" y="444.67" width="37.06" height="37.06" fill="#b2bff5"/><rect x="778.17" y="444.67" width="37.06" height="37.06" fill="#dfe5fb"/><rect x="778.17" y="481.72" width="37.06" height="37.06" fill="#ebeffc"/><rect x="815.2222222222223" y="444.6666666666667" width="74.11111111111111" height="74.11111111111111" fill="#ffffff"/><rect x="815.22" y="444.67" width="37.06" height="37.06" fill="#e7ebfc"/><rect x="852.28" y="444.67" width="37.06" height="37.06" fill="#3355e5"/><rect x="815.22" y="481.72" width="37.06" height="37.06" fill="#3053e4"/><rect x="852.28" y="481.72" width="37.06" height="37.06" fill="#294de3"/><rect x="889.3333333333334" y="444.6666666666667" width="74.11111111111111" height="74.11111111111111" fill="#ffffff"/><rect x="926.39" y="444.67" width="37.06" height="37.06" fill="#ffcd6a"/><rect x="889.33" y="481.72" width="37.06" height="37.06" fill="#fff6e5"/><rect x="926.39" y="481.72" width="37.06" height="37.06" fill="#c9d2f8"/><rect x="1037.5555555555557" y="444.6666666666667" width="74.11111111111111" height="74.11111111111111" fill="#ffffff"/><rect x="1037.56" y="444.67" width="37.06" height="37.06" fill="#fff9ed"/><rect x="1074.61" y="444.67" width="37.06" height="37.06" fill="#ffbd38"/><rect x="1074.61" y="481.72" width="37.06" height="37.06" fill="#2146e2"/><rect x="1111.6666666666667" y="444.6666666666667" width="74.11111111111111" height="74.11111111111111" fill="#ffffff"/><rect x="1111.67" y="444.67" width="37.06" height="37.06" fill="#a9b8f4"/><rect x="1148.72" y="444.67" width="37.06" height="37.06" fill="#ffda91"/><rect x="1111.67" y="481.72" width="37.06" height="37.06" fill="#dde2fb"/><rect x="1148.72" y="481.72" width="37.06" height="37.06" fill="#bbc7f6"/><rect x="0" y="518.7777777777778" width="74.11111111111111" height="74.11111111111111" fill="#ffffff"/><rect x="0" y="518.78" width="37.06" height="37.06" fill="#fffdf8"/><rect x="37.06" y="518.78" width="37.06" height="37.06" fill="#ffdb93"/><rect x="0" y="555.83" width="37.06" height="37.06" fill="#fff2d8"/><rect x="37.06" y="555.83" width="37.06" height="37.06" fill="#ffe4ae"/><rect x="74.11111111111111" y="518.7777777777778" width="74.11111111111111" height="74.11111111111111" fill="#ffffff"/><rect x="74.11" y="518.78" width="37.06" height="37.06" fill="#d8dffa"/><rect x="111.17" y="518.78" width="37.06" height="37.06" fill="#3d5ee6"/><rect x="111.17" y="555.83" width="37.06" height="37.06" fill="#5b77ea"/><rect x="148.22222222222223" y="518.7777777777778" width="74.11111111111111" height="74.11111111111111" fill="#ffffff"/><rect x="148.22" y="518.78" width="37.06" height="37.06" fill="#7a90ee"/><rect x="185.28" y="518.78" width="37.06" height="37.06" fill="#e7ebfc"/><rect x="148.22" y="555.83" width="37.06" height="37.06" fill="#ffe0a3"/><rect x="185.28" y="555.83" width="37.06" height="37.06" fill="#ffcf6e"/><rect x="222.33333333333334" y="518.7777777777778" width="74.11111111111111" height="74.11111111111111" fill="#ffffff"/><rect x="222.33" y="518.78" width="37.06" height="37.06" fill="#3d5de6"/><rect x="259.39" y="518.78" width="37.06" height="37.06" fill="#ffe5b2"/><rect x="222.33" y="555.83" width="37.06" height="37.06" fill="#fff1d6"/><rect x="259.39" y="555.83" width="37.06" height="37.06" fill="#ffd98e"/><rect x="296.44444444444446" y="518.7777777777778" width="74.11111111111111" height="74.11111111111111" fill="#ffffff"/><rect x="296.44" y="518.78" width="37.06" height="37.06" fill="#e6eafc"/><rect x="333.5" y="518.78" width="37.06" height="37.06" fill="#ffce6b"/><rect x="296.44" y="555.83" width="37.06" height="37.06" fill="#3355e4"/><rect x="333.5" y="555.83" width="37.06" height="37.06" fill="#ffe3aa"/><rect x="370.55555555555554" y="518.7777777777778" width="74.11111111111111" height="74.11111111111111" fill="#ffffff"/><rect x="370.56" y="518.78" width="37.06" height="37.06" fill="#ffc042"/><rect x="407.61" y="518.78" width="37.06" height="37.06" fill="#1d44e2"/><rect x="370.56" y="555.83" width="37.06" height="37.06" fill="#fffefc"/><rect x="407.61" y="555.83" width="37.06" height="37.06" fill="#2f52e4"/><rect x="444.6666666666667" y="518.7777777777778" width="74.11111111111111" height="74.11111111111111" fill="#ffffff"/><rect x="444.67" y="518.78" width="37.06" height="37.06" fill="#758ced"/><rect x="481.72" y="518.78" width="37.06" height="37.06" fill="#6982eb"/><rect x="481.72" y="555.83" width="37.06" height="37.06" fill="#2348e2"/><rect x="518.7777777777778" y="518.7777777777778" width="74.11111111111111" height="74.11111111111111" fill="#ffffff"/><rect x="518.78" y="518.78" width="37.06" height="37.06" fill="#90a3f1"/><rect x="555.83" y="518.78" width="37.06" height="37.06" fill="#f7f9fe"/><rect x="518.78" y="555.83" width="37.06" height="37.06" fill="#fff6e3"/><rect x="555.83" y="555.83" width="37.06" height="37.06" fill="#afbcf5"/><rect x="592.8888888888889" y="518.7777777777778" width="74.11111111111111" height="74.11111111111111" fill="#ffffff"/><rect x="592.89" y="518.78" width="37.06" height="37.06" fill="#ffc551"/><rect x="629.94" y="518.78" width="37.06" height="37.06" fill="#f2f4fd"/><rect x="592.89" y="555.83" width="37.06" height="37.06" fill="#c9d2f8"/><rect x="629.94" y="555.83" width="37.06" height="37.06" fill="#ffcc65"/><rect x="667" y="518.7777777777778" width="74.11111111111111" height="74.11111111111111" fill="#ffffff"/><rect x="667" y="518.78" width="37.06" height="37.06" fill="#ffedca"/><rect x="704.06" y="518.78" width="37.06" height="37.06" fill="#2348e2"/><rect x="667" y="555.83" width="37.06" height="37.06" fill="#eef1fd"/><rect x="704.06" y="555.83" width="37.06" height="37.06" fill="#abb9f4"/><rect x="741.1111111111111" y="518.7777777777778" width="74.11111111111111" height="74.11111111111111" fill="#ffffff"/><rect x="741.11" y="518.78" width="37.06" height="37.06" fill="#ffda8f"/><rect x="778.17" y="518.78" width="37.06" height="37.06" fill="#d4dcf9"/><rect x="741.11" y="555.83" width="37.06" height="37.06" fill="#fefeff"/><rect x="778.17" y="555.83" width="37.06" height="37.06" fill="#ffe6b3"/><rect x="815.2222222222223" y="518.7777777777778" width="74.11111111111111" height="74.11111111111111" fill="#ffffff"/><rect x="852.28" y="518.78" width="37.06" height="37.06" fill="#7088ec"/><rect x="815.22" y="555.83" width="37.06" height="37.06" fill="#ffc44f"/><rect x="852.28" y="555.83" width="37.06" height="37.06" fill="#f2f4fd"/><rect x="889.3333333333334" y="518.7777777777778" width="74.11111111111111" height="74.11111111111111" fill="#ffffff"/><rect x="889.33" y="518.78" width="37.06" height="37.06" fill="#4a69e8"/><rect x="926.39" y="518.78" width="37.06" height="37.06" fill="#ffe6b3"/><rect x="889.33" y="555.83" width="37.06" height="37.06" fill="#fff6e3"/><rect x="926.39" y="555.83" width="37.06" height="37.06" fill="#ffe6b4"/><rect x="963.4444444444445" y="518.7777777777778" width="74.11111111111111" height="74.11111111111111" fill="#ffffff"/><rect x="963.44" y="518.78" width="37.06" height="37.06" fill="#ffc249"/><rect x="1000.5" y="518.78" width="37.06" height="37.06" fill="#a5b4f3"/><rect x="963.44" y="555.83" width="37.06" height="37.06" fill="#d5dcf9"/><rect x="1000.5" y="555.83" width="37.06" height="37.06" fill="#3658e5"/><rect x="1037.5555555555557" y="518.7777777777778" width="74.11111111111111" height="74.11111111111111" fill="#ffffff"/><rect x="1037.56" y="518.78" width="37.06" height="37.06" fill="#fff8ea"/><rect x="1074.61" y="518.78" width="37.06" height="37.06" fill="#ffbb34"/><rect x="1037.56" y="555.83" width="37.06" height="37.06" fill="#ffc34a"/><rect x="1074.61" y="555.83" width="37.06" height="37.06" fill="#4464e7"/><rect x="1111.6666666666667" y="518.7777777777778" width="74.11111111111111" height="74.11111111111111" fill="#ffffff"/><rect x="1111.67" y="518.78" width="37.06" height="37.06" fill="#e0e5fb"/><rect x="1148.72" y="518.78" width="37.06" height="37.06" fill="#d1d9f9"/><rect x="1111.67" y="555.83" width="37.06" height="37.06" fill="#f1f3fd"/><rect x="1148.72" y="555.83" width="37.06" height="37.06" fill="#ffd47e"/><rect x="0" y="592.8888888888889" width="74.11111111111111" height="74.11111111111111" fill="#ffffff"/><rect x="0" y="592.89" width="37.06" height="37.06" fill="#657feb"/><rect x="37.06" y="592.89" width="37.06" height="37.06" fill="#d8defa"/><rect x="0" y="629.94" width="37.06" height="37.06" fill="#3d5ee6"/><rect x="37.06" y="629.94" width="37.06" height="37.06" fill="#5b77ea"/><rect x="74.11111111111111" y="592.8888888888889" width="74.11111111111111" height="74.11111111111111" fill="#ffffff"/><rect x="74.11" y="592.89" width="37.06" height="37.06" fill="#ffc756"/><rect x="111.17" y="592.89" width="37.06" height="37.06" fill="#d7defa"/><rect x="74.11" y="629.94" width="37.06" height="37.06" fill="#ffdb94"/><rect x="111.17" y="629.94" width="37.06" height="37.06" fill="#2e51e4"/><rect x="148.22222222222223" y="592.8888888888889" width="74.11111111111111" height="74.11111111111111" fill="#ffffff"/><rect x="148.22" y="592.89" width="37.06" height="37.06" fill="#798fee"/><rect x="185.28" y="592.89" width="37.06" height="37.06" fill="#ffc34b"/><rect x="148.22" y="629.94" width="37.06" height="37.06" fill="#fffdf8"/><rect x="185.28" y="629.94" width="37.06" height="37.06" fill="#ffde9d"/><rect x="222.33333333333334" y="592.8888888888889" width="74.11111111111111" height="74.11111111111111" fill="#ffffff"/><rect x="222.33" y="592.89" width="37.06" height="37.06" fill="#fffbf3"/><rect x="259.39" y="592.89" width="37.06" height="37.06" fill="#ffecc5"/><rect x="222.33" y="629.94" width="37.06" height="37.06" fill="#2e51e4"/><rect x="259.39" y="629.94" width="37.06" height="37.06" fill="#dce2fa"/><rect x="296.44444444444446" y="592.8888888888889" width="74.11111111111111" height="74.11111111111111" fill="#ffffff"/><rect x="296.44" y="592.89" width="37.06" height="37.06" fill="#d4dbf9"/><rect x="333.5" y="592.89" width="37.06" height="37.06" fill="#5672e9"/><rect x="296.44" y="629.94" width="37.06" height="37.06" fill="#1e44e2"/><rect x="333.5" y="629.94" width="37.06" height="37.06" fill="#879bef"/><rect x="370.55555555555554" y="592.8888888888889" width="74.11111111111111" height="74.11111111111111" fill="#ffffff"/><rect x="370.56" y="592.89" width="37.06" height="37.06" fill="#8da0f0"/><rect x="407.61" y="592.89" width="37.06" height="37.06" fill="#ffbd39"/><rect x="370.56" y="629.94" width="37.06" height="37.06" fill="#3f5fe6"/><rect x="407.61" y="629.94" width="37.06" height="37.06" fill="#ffdc96"/><rect x="444.6666666666667" y="592.8888888888889" width="74.11111111111111" height="74.11111111111111" fill="#ffffff"/><rect x="444.67" y="592.89" width="37.06" height="37.06" fill="#6c85ec"/><rect x="481.72" y="592.89" width="37.06" height="37.06" fill="#ffe1a6"/><rect x="444.67" y="629.94" width="37.06" height="37.06" fill="#90a3f1"/><rect x="481.72" y="629.94" width="37.06" height="37.06" fill="#1a41e1"/><rect x="518.7777777777778" y="592.8888888888889" width="74.11111111111111" height="74.11111111111111" fill="#ffffff"/><rect x="518.78" y="592.89" width="37.06" height="37.06" fill="#ffd47f"/><rect x="555.83" y="592.89" width="37.06" height="37.06" fill="#ffe4ae"/><rect x="518.78" y="629.94" width="37.06" height="37.06" fill="#ced6f9"/><rect x="555.83" y="629.94" width="37.06" height="37.06" fill="#ffecc7"/><rect x="592.8888888888889" y="592.8888888888889" width="74.11111111111111" height="74.11111111111111" fill="#ffffff"/><rect x="592.89" y="592.89" width="37.06" height="37.06" fill="#ffdb93"/><rect x="629.94" y="592.89" width="37.06" height="37.06" fill="#7b91ee"/><rect x="592.89" y="629.94" width="37.06" height="37.06" fill="#ffda91"/><rect x="629.94" y="629.94" width="37.06" height="37.06" fill="#ffcc65"/><rect x="667" y="592.8888888888889" width="74.11111111111111" height="74.11111111111111" fill="#ffffff"/><rect x="667" y="592.89" width="37.06" height="37.06" fill="#5672e9"/><rect x="704.06" y="592.89" width="37.06" height="37.06" fill="#ffde9c"/><rect x="667" y="629.94" width="37.06" height="37.06" fill="#6e87ec"/><rect x="704.06" y="629.94" width="37.06" height="37.06" fill="#e9ecfc"/><rect x="741.1111111111111" y="592.8888888888889" width="74.11111111111111" height="74.11111111111111" fill="#ffffff"/><rect x="741.11" y="592.89" width="37.06" height="37.06" fill="#ffe8bb"/><rect x="778.17" y="592.89" width="37.06" height="37.06" fill="#fff2d7"/><rect x="741.11" y="629.94" width="37.06" height="37.06" fill="#c1cbf7"/><rect x="778.17" y="629.94" width="37.06" height="37.06" fill="#2449e3"/><rect x="815.2222222222223" y="592.8888888888889" width="74.11111111111111" height="74.11111111111111" fill="#ffffff"/><rect x="815.22" y="592.89" width="37.06" height="37.06" fill="#91a4f1"/><rect x="852.28" y="592.89" width="37.06" height="37.06" fill="#ffd47f"/><rect x="815.22" y="629.94" width="37.06" height="37.06" fill="#ffe5b2"/><rect x="852.28" y="629.94" width="37.06" height="37.06" fill="#fffcf5"/><rect x="889.3333333333334" y="592.8888888888889" width="74.11111111111111" height="74.11111111111111" fill="#ffffff"/><rect x="889.33" y="592.89" width="37.06" height="37.06" fill="#6781eb"/><rect x="926.39" y="592.89" width="37.06" height="37.06" fill="#9eaef2"/><rect x="889.33" y="629.94" width="37.06" height="37.06" fill="#4565e7"/><rect x="926.39" y="629.94" width="37.06" height="37.06" fill="#fff5e2"/><rect x="963.4444444444445" y="592.8888888888889" width="74.11111111111111" height="74.11111111111111" fill="#ffffff"/><rect x="963.44" y="592.89" width="37.06" height="37.06" fill="#ffd88a"/><rect x="1000.5" y="592.89" width="37.06" height="37.06" fill="#8ea1f0"/><rect x="963.44" y="629.94" width="37.06" height="37.06" fill="#ffc34b"/><rect x="1000.5" y="629.94" width="37.06" height="37.06" fill="#2f52e4"/><rect x="1037.5555555555557" y="592.8888888888889" width="74.11111111111111" height="74.11111111111111" fill="#ffffff"/><rect x="1037.56" y="592.89" width="37.06" height="37.06" fill="#3e5ee6"/><rect x="1074.61" y="592.89" width="37.06" height="37.06" fill="#7c92ee"/><rect x="1037.56" y="629.94" width="37.06" height="37.06" fill="#dfe5fb"/><rect x="1074.61" y="629.94" width="37.06" height="37.06" fill="#ffd788"/><rect x="1111.6666666666667" y="592.8888888888889" width="74.11111111111111" height="74.11111111111111" fill="#ffffff"/><rect x="1111.67" y="592.89" width="37.06" height="37.06" fill="#ffdc97"/><rect x="1148.72" y="592.89" width="37.06" height="37.06" fill="#c1cbf7"/><rect x="1111.67" y="629.94" width="37.06" height="37.06" fill="#ffbc36"/><rect x="1148.72" y="629.94" width="37.06" height="37.06" fill="#fffaf0"/></g></svg>